<?xml version="1.0" encoding="utf-8"?>
<!-- Generator: Adobe Illustrator 22.0.1, SVG Export Plug-In . SVG Version: 6.00 Build 0)  -->
<svg version="1.1" id="Layer_1" xmlns="http://www.w3.org/2000/svg" xmlns:xlink="http://www.w3.org/1999/xlink" x="0px" y="0px"
	 viewBox="0 0 932 280" style="enable-background:new 0 0 932 280;" xml:space="preserve">
<g>
	<g>
		<path d="M185.2,0h-88c-52.8,0-96,43.2-96,96v88c0,52.8,43.2,96,96,96h88c52.8,0,96-43.2,96-96V96C281.2,43.2,238,0,185.2,0z
			 M197.2,179.2c0,12.5-18.3,22.8-30.8,22.8H116c-12.6,0-30.8-10.2-30.8-22.8V178h112V179.2z M197.2,152H116
			c-12.5,0-30.8-10.3-30.8-22.8V128h81.2c12.5,0,30.8,10.3,30.8,22.8V152z M197.2,102h-112v-1.2C85.2,88.3,103.4,78,116,78h50.4
			c12.6,0,30.8,10.2,30.8,22.8V102z"/>
	</g>
	<g>
		<path d="M428.5,172c0-27.4-74.4-5.9-74.4-60.3c0-23.5,18.6-42.1,50.7-42.1c32.5,0,50.9,20.6,51.7,45.7h-28
			c-0.6-12.1-9.2-20.9-24.1-20.9c-13.5,0-22.1,6.7-22.1,15.7c0,27.8,75.2,5.9,75.2,61.1c0,24.9-21.9,42.5-55,42.5
			c-38.6,0-52.9-23.9-53.6-46.8H377c0.8,11.4,9,21.3,27,21.3C419.3,188,428.5,182.1,428.5,172z"/>
		<path d="M505.4,210.7h-27.8v-80.7h-13.9v-21.9h13.9V82.7h27.8v25.4h15.1v21.9h-15.1V210.7z"/>
		<path d="M549.2,167.5c2,14.1,11,21.7,24.9,21.7c8.4,0,16.4-3.7,19.8-11.2h28c-6.1,20.8-24.9,35-48.5,35
			c-30.3,0-51.7-22.3-51.7-53.8c0-30.3,21.1-53.4,51.5-53.4c30.3,0,50.9,23.1,50.9,53.4c0,4.5-0.4,8.2-0.4,8.2H549.2z M549.6,147.5
			h46.6c-2-11.6-10.4-19.4-23.3-19.4C560.2,128.1,552,135.8,549.6,147.5z"/>
		<path d="M663.5,120.7c4.7-8.8,15.3-14.9,30.5-14.9c24.7,0,37.8,16.4,37.8,40.9v64H704v-60.9c0-11.9-5.1-20.2-17.4-20.2
			c-13.5,0-20.9,8.6-20.9,22.3v58.7h-27.8V108.2h25.6V120.7z"/>
		<path d="M795.4,105.8c31.9,0,47,22.5,48.9,39.9h-28.6c-2.2-8.8-10.4-15.3-20.6-15.3c-14.9,0-23.5,11.7-23.5,29
			c0,17.2,8.6,29,23.5,29c10.2,0,18.4-6.5,20.6-15.3h28.6c-2,17.4-17,39.9-48.9,39.9c-29.8,0-51.5-23.1-51.5-53.6
			C743.9,128.9,765.7,105.8,795.4,105.8z"/>
		<path d="M903.2,210.7V66.5H931v144.2H903.2z"/>
		<g>
			<path d="M856.9,108.2h27.8v102.6h-27.8V108.2z"/>
			<circle cx="871" cy="82.5" r="16"/>
		</g>
	</g>
</g>
</svg>
