<svg viewBox="0 0 97 20" xmlns="http://www.w3.org/2000/svg">
  <path d="M32.25 13.1294H35.5993C35.6497 13.9443 36.255 14.709 37.627 14.709C38.8881 14.709 39.5337 14.2663 39.5337 13.5922C39.5337 11.5499 32.7645 13.4715 32.7645 8.65234C32.7645 6.44901 34.651 4.63806 37.6573 4.63806C41.3093 4.63806 42.5703 6.96212 42.6611 8.74289H39.4732C39.4026 7.97826 38.8175 7.28406 37.6371 7.28406C36.5678 7.28406 35.9625 7.79717 35.9625 8.47124C35.9625 10.5136 42.7115 8.47125 42.7115 13.4614C42.7115 15.6446 40.8452 17.365 37.5463 17.365C33.7128 17.355 32.4114 15.4032 32.25 13.1294Z"/>
  <path d="M47.0394 4.90971V2.08261H43.7305V17.0733H47.0394V7.59596H49.4707V4.90971H47.0394Z"/>
  <path d="M52.1844 11.9422C52.4165 13.6123 53.4858 14.5178 55.1403 14.5178C56.1391 14.5178 57.0974 14.0751 57.4909 13.1898H60.82C60.0937 15.6547 57.8641 17.3449 55.0495 17.3449C51.4379 17.3449 48.9058 14.6989 48.9058 10.9663C48.9058 7.36454 51.4177 4.62799 55.0293 4.62799C58.6409 4.62799 61.0823 7.36454 61.0823 10.9663C61.0823 11.4995 61.0319 11.9422 61.0319 11.9422H52.1844ZM52.2248 9.57793H57.7633C57.5312 8.20965 56.5325 7.28405 54.989 7.28405C53.4858 7.28405 52.5073 8.18953 52.2248 9.57793Z"/>
  <path d="M65.3497 6.39871C65.9046 5.35238 67.1656 4.63806 68.9815 4.63806C71.9172 4.63806 73.4708 6.58987 73.4708 9.48739V17.0733H70.1618V9.84958C70.1618 8.431 69.5565 7.4551 68.0937 7.4551C66.4897 7.4551 65.6019 8.48131 65.6019 10.1011V17.0632H62.293V4.9097H65.3497V6.39871Z"/>
  <path d="M80.815 4.63806C84.6082 4.63806 86.4039 7.30419 86.6359 9.37672H83.2362C82.984 8.33039 82.0054 7.56577 80.7948 7.56577C79.0294 7.56577 78.0004 8.95417 78.0004 10.9965C78.0004 13.0389 79.0294 14.4273 80.7948 14.4273C82.0054 14.4273 82.984 13.6626 83.2362 12.6163H86.6359C86.4039 14.6788 84.6082 17.355 80.815 17.355C77.274 17.355 74.6914 14.6184 74.6914 10.9965C74.6914 7.37461 77.274 4.63806 80.815 4.63806Z"/>
  <path d="M87.5134 1.99205C87.5134 0.83505 88.3508 0 89.5109 0C90.6711 0 91.5084 0.83505 91.5084 1.99205C91.5084 3.14904 90.6711 3.96397 89.5109 3.96397C88.3608 3.96397 87.5134 3.15911 87.5134 1.99205ZM87.8665 4.90969H91.1755V17.0733H87.8665V4.90969Z"/>
  <path d="M92.9409 17.0732V0.764618H96.2499V17.0732H92.9409Z"/>
  <path d="M9.83761 14.0659H19.8582L14.4415 20H4.47485L9.83761 14.0659Z"/>
  <path d="M26.25 7.03296H5.66382L0.25 12.967H20.8362L26.25 7.03296Z"/>
  <path d="M12.0413 0H22.0249L16.6332 5.93407H6.6416L12.0413 0Z"/>
</svg>
