<svg xmlns="http://www.w3.org/2000/svg" width="96" height="20" fill="none"><path fill="#000" d="M32 13.13h3.35c.05.81.66 1.58 2.03 1.58 1.26 0 1.9-.44 1.9-1.12 0-2.04-6.77-.12-6.77-4.94 0-2.2 1.9-4.01 4.9-4.01 3.65 0 4.91 2.32 5 4.1h-3.19c-.07-.76-.65-1.46-1.83-1.46-1.07 0-1.68.52-1.68 1.2 0 2.03 6.75 0 6.75 4.98 0 2.18-1.86 3.9-5.16 3.9-3.84 0-5.14-1.96-5.3-4.23ZM46.79 4.91V2.08h-3.31v15h3.3V7.6h2.44V4.9H46.8Z"/><path fill="#000" d="M51.93 11.94c.24 1.67 1.3 2.58 2.96 2.58 1 0 1.96-.44 2.35-1.33h3.33a5.83 5.83 0 0 1-5.77 4.15c-3.61 0-6.14-2.64-6.14-6.37 0-3.6 2.5-6.34 6.12-6.34 3.61 0 6.05 2.73 6.05 6.34 0 .53-.05.97-.05.97h-8.85Zm.04-2.36h5.54c-.23-1.37-1.23-2.3-2.77-2.3-1.5 0-2.48.9-2.77 2.3ZM65.1 6.4c.55-1.05 1.82-1.76 3.63-1.76 2.94 0 4.5 1.95 4.5 4.85v7.58H69.9V9.85c0-1.42-.6-2.4-2.07-2.4-1.6 0-2.49 1.03-2.49 2.65v6.96h-3.3V4.91h3.05V6.4ZM80.56 4.64c3.8 0 5.6 2.66 5.83 4.74h-3.4a2.44 2.44 0 0 0-2.45-1.81c-1.76 0-2.79 1.38-2.79 3.43 0 2.04 1.03 3.43 2.8 3.43 1.2 0 2.18-.77 2.44-1.81h3.4c-.24 2.06-2.03 4.74-5.83 4.74-3.54 0-6.12-2.74-6.12-6.36 0-3.63 2.58-6.36 6.12-6.36ZM87.26 2c0-1.16.84-2 2-2 1.16 0 2 .84 2 2 0 1.15-.84 1.96-2 1.96-1.15 0-2-.8-2-1.97Zm.36 2.91h3.3v12.16h-3.3V4.91ZM92.7 17.07V.77H96v16.3h-3.3ZM9.59 14.07H19.6L14.19 20H4.22l5.37-5.93ZM26 7.03H5.41L0 12.97h20.59L26 7.03ZM11.8 0h9.97l-5.39 5.93H6.4L11.8 0Z"/></svg>