<svg width="893" height="200" viewBox="0 0 893 200" fill="none" xmlns="http://www.w3.org/2000/svg">
<path d="M304 137.161H334.824C335.288 144.681 340.859 151.737 353.486 151.737C365.091 151.737 371.033 147.652 371.033 141.432C371.033 122.584 308.735 140.318 308.735 95.8455C308.735 75.5128 326.097 58.8009 353.764 58.8009C387.374 58.8009 398.979 80.2478 399.815 96.6811H370.476C369.826 89.625 364.441 83.2188 353.578 83.2188C343.737 83.2188 338.166 87.9538 338.166 94.1743C338.166 113.022 400.279 94.1743 400.279 140.225C400.279 160.372 383.103 176.248 352.743 176.248C317.462 176.155 305.485 158.144 304 137.161Z" fill="white"/>
<path d="M440.109 61.3077V35.2186H409.656V173.556H440.109V86.0969H462.484V61.3077H440.109Z" fill="white"/>
<path d="M487.459 126.205C489.594 141.617 499.436 149.973 514.662 149.973C523.854 149.973 532.674 145.888 536.295 137.718H566.933C560.248 160.465 539.73 176.062 513.827 176.062C480.589 176.062 457.285 151.645 457.285 117.2C457.285 83.9615 480.403 58.7081 513.641 58.7081C546.879 58.7081 569.347 83.9615 569.347 117.2C569.347 122.12 568.883 126.205 568.883 126.205H487.459ZM487.83 104.387H538.802C536.666 91.7604 527.475 83.2188 513.27 83.2188C499.436 83.2188 490.43 91.5747 487.83 104.387Z" fill="white"/>
<path d="M608.62 75.0485C613.726 65.3928 625.332 58.8009 642.044 58.8009C669.061 58.8009 683.359 76.8126 683.359 103.552V173.556H652.906V106.894C652.906 93.803 647.336 84.7971 633.873 84.7971C619.111 84.7971 610.941 94.2672 610.941 109.215V173.463H580.488V61.3077H608.62V75.0485Z" fill="white"/>
<path d="M750.949 58.8009C785.858 58.8009 802.385 83.4045 804.52 102.53H773.232C770.911 92.8745 761.905 85.8184 750.764 85.8184C734.516 85.8184 725.046 98.6308 725.046 117.478C725.046 136.325 734.516 149.138 750.764 149.138C761.905 149.138 770.911 142.082 773.232 132.426H804.52C802.385 151.459 785.858 176.155 750.949 176.155C718.361 176.155 694.593 150.902 694.593 117.478C694.593 84.0544 718.361 58.8009 750.949 58.8009Z" fill="white"/>
<path d="M812.597 34.383C812.597 23.706 820.303 16 830.98 16C841.657 16 849.364 23.706 849.364 34.383C849.364 45.0601 841.657 52.5804 830.98 52.5804C820.396 52.5804 812.597 45.1529 812.597 34.383ZM815.847 61.3077H846.3V173.556H815.847V61.3077Z" fill="white"/>
<path d="M862.547 173.556V23.0562H893V173.556H862.547Z" fill="white"/>
<path d="M97.3526 140.659H199.1L144.1 200H42.9L97.3526 140.659Z" fill="#F4F4F4"/>
<path d="M97.3526 140.659H199.1L70.1263 170.33L97.3526 140.659Z" fill="#A7A7A7"/>
<path d="M264 70.3297H54.9711L0 129.67H209.029L264 70.3297Z" fill="white"/>
<path d="M119.728 0H221.1L166.353 59.3407H64.9L119.728 0Z" fill="white"/>
</svg>
