<svg xmlns="http://www.w3.org/2000/svg" width="153" height="20" fill="none"><path fill="#92A0B3" d="M107.53 17c4.16 0 6.47-2.48 6.47-6.04 0-3.55-2.31-6.03-6.47-6.03h-4.1V17h4.1Zm4.3-6.04c0 2.5-1.4 4.14-4.37 4.14h-1.97V6.83h1.97c2.97 0 4.37 1.64 4.37 4.13Zm5.9 0c0-2.6 1.7-4.31 4.06-4.31 2.36 0 4.06 1.71 4.06 4.31 0 2.6-1.7 4.32-4.06 4.32-2.37 0-4.07-1.71-4.07-4.31Zm-2.18 0a6.06 6.06 0 0 0 6.24 6.3c3.67 0 6.24-2.7 6.24-6.3a6.06 6.06 0 0 0-6.24-6.29 6.06 6.06 0 0 0-6.24 6.3Zm14.01-.01c0 3.72 2.52 6.29 6.03 6.29 3 0 5.3-1.79 5.8-4.66h-2.2c-.4 1.7-1.78 2.69-3.6 2.69-2.4 0-3.85-1.72-3.85-4.32 0-2.6 1.44-4.3 3.85-4.3 1.82 0 3.2.98 3.6 2.68h2.2c-.5-2.87-2.8-4.66-5.8-4.66-3.51 0-6.03 2.57-6.03 6.28Zm17.79 4.44c-1.63 0-2.5-.87-2.59-2.16h-2.04c.07 1.97 1.31 4 4.53 4 2.88 0 4.79-1.42 4.79-3.61 0-4.83-6.8-2.77-6.8-5.43 0-1.07.87-1.66 2.28-1.66 1.54 0 2.34.95 2.36 2.14h2.02c-.05-2.26-1.54-4-4.38-4-2.69 0-4.32 1.65-4.32 3.57 0 4.83 6.75 2.52 6.75 5.46 0 1.09-.95 1.69-2.6 1.69Z"/><path fill="#000" d="M32 13.13h3.35c.05.81.66 1.58 2.03 1.58 1.26 0 1.9-.44 1.9-1.12 0-2.04-6.77-.12-6.77-4.94 0-2.2 1.9-4.01 4.9-4.01 3.65 0 4.91 2.32 5 4.1h-3.19c-.07-.76-.65-1.46-1.83-1.46-1.07 0-1.68.52-1.68 1.2 0 2.03 6.75 0 6.75 4.98 0 2.18-1.86 3.9-5.16 3.9-3.84 0-5.14-1.96-5.3-4.23ZM46.79 4.91V2.08h-3.31v15h3.3V7.6h2.44V4.9H46.8Z"/><path fill="#000" d="M51.93 11.94c.24 1.67 1.3 2.58 2.96 2.58 1 0 1.96-.44 2.35-1.33h3.33a5.83 5.83 0 0 1-5.77 4.15c-3.61 0-6.14-2.64-6.14-6.37 0-3.6 2.5-6.34 6.12-6.34 3.61 0 6.05 2.73 6.05 6.34 0 .53-.05.97-.05.97h-8.85Zm.04-2.36h5.54c-.23-1.37-1.23-2.3-2.77-2.3-1.5 0-2.48.91-2.77 2.3ZM65.1 6.4c.55-1.05 1.82-1.76 3.63-1.76 2.94 0 4.5 1.95 4.5 4.85v7.58H69.9V9.85c0-1.42-.6-2.4-2.07-2.4-1.6 0-2.49 1.03-2.49 2.65v6.96h-3.3V4.91h3.05V6.4ZM80.56 4.64c3.8 0 5.6 2.66 5.83 4.74h-3.4a2.44 2.44 0 0 0-2.45-1.81c-1.76 0-2.79 1.38-2.79 3.43 0 2.04 1.03 3.43 2.8 3.43 1.2 0 2.18-.77 2.44-1.81h3.4c-.24 2.06-2.03 4.74-5.83 4.74-3.54 0-6.12-2.74-6.12-6.36 0-3.63 2.58-6.36 6.12-6.36ZM87.26 2c0-1.16.84-2 2-2 1.16 0 2 .84 2 2 0 1.15-.84 1.96-2 1.96-1.15 0-2-.8-2-1.97Zm.36 2.91h3.3v12.16h-3.3V4.91ZM92.7 17.07V.77H96v16.3h-3.3ZM9.59 14.07H19.6L14.19 20H4.22l5.37-5.93ZM26 7.03H5.41L0 12.97h20.59L26 7.03ZM11.8 0h9.97l-5.39 5.93H6.4L11.8 0Z"/></svg>